<?xml version="1.0" encoding="UTF-8" standalone="no"?>
<svg
   xmlns:dc="http://purl.org/dc/elements/1.1/"
   xmlns:cc="http://creativecommons.org/ns#"
   xmlns:rdf="http://www.w3.org/1999/02/22-rdf-syntax-ns#"
   xmlns:svg="http://www.w3.org/2000/svg"
   xmlns="http://www.w3.org/2000/svg"
   id="svg1158"
   version="1.1"
   viewBox="0 0 4.2330504 4.2360401"
   height="4.2360401mm"
   width="4.2330503mm">
  <defs
     id="defs1152" />
  <metadata
     id="metadata1155">
    <rdf:RDF>
      <cc:Work
         rdf:about="">
        <dc:format>image/svg+xml</dc:format>
        <dc:type
           rdf:resource="http://purl.org/dc/dcmitype/StillImage" />
        <dc:title></dc:title>
      </cc:Work>
    </rdf:RDF>
  </metadata>
  <g
     transform="translate(-125.88286,-161.56292)"
     id="layer1">
    <path
       id="path1751"
       d="m 127.99982,161.56292 c -0.11881,9e-5 -0.23843,0.0113 -0.35505,0.0307 l -0.11989,0.0197 -0.10542,0.44019 c -0.0541,0.0196 -0.10595,0.0407 -0.15754,0.0654 l -0.38748,-0.234 -0.0985,0.0701 c -0.19429,0.13733 -0.36304,0.30749 -0.501,0.501 l -0.0724,0.0985 0.23863,0.38748 c -0.0242,0.0512 -0.0468,0.10395 -0.066,0.15754 l -0.43961,0.10542 -0.022,0.12047 c -0.0207,0.11726 -0.03,0.23365 -0.0307,0.35215 v 0.005 c 2.8e-4,0.11876 0.0115,0.23396 0.0307,0.35042 l 0.0197,0.12221 0.44424,0.10541 c 0.0186,0.0523 0.0398,0.10426 0.0637,0.15522 l -0.23863,0.38749 0.0724,0.10077 c 0.13712,0.19393 0.3053,0.36306 0.49868,0.50101 l 0.10078,0.0724 0.38748,-0.23863 c 0.0516,0.0245 0.10304,0.0458 0.15754,0.0654 l 0.10484,0.44019 0.12047,0.0197 c 0.1167,0.0206 0.23598,0.034 0.35505,0.0348 0.11824,6e-5 0.23744,-0.0101 0.35446,-0.0307 l 0.12048,-0.0214 0.10251,-0.43787 c 0.0549,-0.0197 0.10698,-0.0426 0.15986,-0.0678 l 0.38748,0.23631 0.0985,-0.0724 c 0.19324,-0.13677 0.36177,-0.30684 0.49926,-0.49927 l 0.002,-0.002 0.0724,-0.0961 -0.23862,-0.38748 c 0.0245,-0.0518 0.0459,-0.10563 0.0655,-0.15986 l 0.43787,-0.10483 0.0243,-0.11816 c 0.0207,-0.11717 0.0293,-0.2359 0.0301,-0.35447 v -0.002 c 4e-5,-0.11821 -0.009,-0.23591 -0.0284,-0.35273 l -0.0197,-0.12047 -0.44656,-0.10716 c -0.0189,-0.0528 -0.0388,-0.10607 -0.0631,-0.15754 l 0.23631,-0.38516 -0.0701,-0.10078 c -0.13739,-0.19393 -0.30547,-0.36312 -0.49927,-0.501 l -0.10078,-0.0724 -0.38922,0.23862 c -0.051,-0.0243 -0.10418,-0.0443 -0.15812,-0.0637 l -0.10251,-0.44192 -0.12048,-0.022 c -0.1169,-0.0205 -0.23429,-0.0299 -0.35272,-0.0307 z m 0,0.37242 c 7.2e-4,1e-5 0.001,0 0.002,0 0.0567,5.2e-4 0.11403,0.005 0.1726,0.0128 l 0.0921,0.38979 0.10251,0.0307 c 0.10278,0.0288 0.20467,0.0687 0.29771,0.12047 l 0.0921,0.0521 0.33072,-0.2033 c 0.0916,0.0749 0.17731,0.15786 0.25195,0.24964 l -0.20619,0.33245 0.0527,0.0967 c 0.0526,0.093 0.0951,0.19054 0.12453,0.29307 l 0.029,0.10541 0.39154,0.0915 c 0.007,0.0576 0.0133,0.1147 0.0133,0.17086 -3.6e-4,0.0569 -0.008,0.11623 -0.0156,0.17492 l -0.39154,0.0921 -0.0284,0.10715 h 0.002 c -0.0288,0.10267 -0.0703,0.20039 -0.12221,0.29365 l -0.055,0.0961 0.20388,0.33072 c -0.0743,0.0907 -0.15613,0.17327 -0.24732,0.24731 l -0.33305,-0.20387 -0.0961,0.055 c -0.0925,0.052 -0.19112,0.0929 -0.29308,0.12221 l -0.10309,0.0307 -0.0921,0.3898 c -0.0583,0.007 -0.11574,0.011 -0.1726,0.011 -0.057,-3.3e-4 -0.11642,-0.005 -0.17549,-0.0127 l -0.0938,-0.3898 -0.10541,-0.0307 c -0.10289,-0.0288 -0.20222,-0.0687 -0.29539,-0.12047 l -0.0915,-0.0527 -0.33072,0.20388 c -0.0919,-0.0751 -0.17737,-0.15778 -0.25195,-0.24963 l 0.20793,-0.33246 -0.0544,-0.0967 c -0.0525,-0.0931 -0.0958,-0.1906 -0.12511,-0.29307 l -0.0301,-0.10483 -0.38748,-0.0921 c -0.007,-0.059 -0.0155,-0.11847 -0.0156,-0.17492 6.1e-4,-0.0548 0.01,-0.11302 0.0174,-0.17086 l 0.3898,-0.0921 0.0284,-0.10715 c 0.0288,-0.10266 0.0709,-0.20044 0.12279,-0.29365 l 0.0527,-0.0961 -0.2062,-0.33072 c 0.0751,-0.0919 0.16002,-0.17445 0.25195,-0.24906 l 0.33246,0.20562 0.0921,-0.055 c 0.0926,-0.0521 0.19265,-0.0905 0.29539,-0.11989 l 0.1031,-0.0307 0.0944,-0.39211 c 0.0584,-0.007 0.11565,-0.011 0.1726,-0.011 z m 0,0.78365 c -0.52913,0 -0.96147,0.42946 -0.96147,0.95857 0,0.52912 0.43223,0.9632 0.96147,0.9632 0.52924,0 0.9632,-0.43396 0.9632,-0.9632 0,-0.52922 -0.43407,-0.95857 -0.9632,-0.95857 z m 0,0.36779 c 0.3289,0 0.59078,0.2619 0.59078,0.59078 0,0.32889 -0.26188,0.5931 -0.59078,0.5931 -0.32888,0 -0.59136,-0.26421 -0.59136,-0.5931 0,-0.32888 0.26248,-0.59078 0.59136,-0.59078 z"
       style="color:#000000;font-style:normal;font-variant:normal;font-weight:normal;font-stretch:normal;font-size:medium;line-height:normal;font-family:sans-serif;font-variant-ligatures:normal;font-variant-position:normal;font-variant-caps:normal;font-variant-numeric:normal;font-variant-alternates:normal;font-feature-settings:normal;text-indent:0;text-align:start;text-decoration:none;text-decoration-line:none;text-decoration-style:solid;text-decoration-color:#000000;letter-spacing:normal;word-spacing:normal;text-transform:none;writing-mode:lr-tb;direction:ltr;text-orientation:mixed;dominant-baseline:auto;baseline-shift:baseline;text-anchor:start;white-space:normal;shape-padding:0;clip-rule:nonzero;display:inline;overflow:visible;visibility:visible;opacity:1;isolation:auto;mix-blend-mode:normal;color-interpolation:sRGB;color-interpolation-filters:linearRGB;solid-color:#000000;solid-opacity:1;vector-effect:none;fill:#9cb4cc;fill-opacity:1;fill-rule:nonzero;stroke:none;stroke-width:0.06614583;stroke-linecap:round;stroke-linejoin:miter;stroke-miterlimit:4;stroke-dasharray:none;stroke-dashoffset:0;stroke-opacity:1;paint-order:stroke fill markers;color-rendering:auto;image-rendering:auto;shape-rendering:auto;text-rendering:auto;enable-background:accumulate" />
  </g>
</svg>
